<?xml version="1.0" encoding="UTF-8" standalone="no"?>
<svg
   xmlns:dc="http://purl.org/dc/elements/1.1/"
   xmlns:cc="http://creativecommons.org/ns#"
   xmlns:rdf="http://www.w3.org/1999/02/22-rdf-syntax-ns#"
   xmlns:svg="http://www.w3.org/2000/svg"
   xmlns="http://www.w3.org/2000/svg"
   xmlns:sodipodi="http://sodipodi.sourceforge.net/DTD/sodipodi-0.dtd"
   xmlns:inkscape="http://www.inkscape.org/namespaces/inkscape"
   width="1600"
   height="502"
   version="1.1"
   id="svg2832"
   sodipodi:docname="page-title.svg"
   inkscape:version="0.92.4 (5da689c313, 2019-01-14)">
  <metadata
     id="metadata2838">
    <rdf:RDF>
      <cc:Work
         rdf:about="">
        <dc:format>image/svg+xml</dc:format>
        <dc:type
           rdf:resource="http://purl.org/dc/dcmitype/StillImage" />
      </cc:Work>
    </rdf:RDF>
  </metadata>
  <defs
     id="defs2836">
    <radialGradient
       gradientUnits="userSpaceOnUse"
       gradientTransform="matrix(0,1.6193,-1.8098,0,6471.5,1032.1)"
       r="961.15"
       cy="-137.8"
       cx="1142.6"
       id="k">
      <stop
         id="stop3467"
         offset="0"
         stop-color="#f9f9f9" />
      <stop
         id="stop3469"
         offset="1"
         stop-color="#f2f2f2" />
    </radialGradient>
    <radialGradient
       gradientUnits="userSpaceOnUse"
       gradientTransform="matrix(0,0.44088,-1.2194,2.2909e-6,1015,561.7)"
       r="187.81"
       cy="694.43"
       cx="99.544"
       id="p">
      <stop
         id="stop3472"
         offset="0" />
      <stop
         id="stop3474"
         offset="1"
         stop-opacity="0" />
    </radialGradient>
    <filter
       color-interpolation-filters="sRGB"
       height="1.4105"
       width="1.1056"
       y="-.20524"
       x="-.052806"
       id="i">
      <feGaussianBlur
         id="feGaussianBlur3477"
         stdDeviation="8.2646263" />
    </filter>
    <radialGradient
       gradientUnits="userSpaceOnUse"
       gradientTransform="matrix(5.6431,0,0,5.2513,5745.5,423.07)"
       r="187.81"
       cy="383.94"
       cx="192.38"
       id="l">
      <stop
         id="stop3480"
         offset="0"
         stop-color="#fff" />
      <stop
         id="stop3482"
         offset=".50863"
         stop-color="#f9f9f9" />
      <stop
         id="stop3484"
         offset=".72662"
         stop-color="#e4e4e4" />
      <stop
         id="stop3486"
         offset="1"
         stop-color="#b3b3b3" />
    </radialGradient>
    <radialGradient
       gradientUnits="userSpaceOnUse"
       gradientTransform="matrix(5.408,0,0,5.408,5795.7,357.72)"
       r="75.215"
       cy="416.87"
       cx="160.79"
       id="m">
      <stop
         id="stop3489"
         offset="0"
         stop-color="#ccf6ff" />
      <stop
         id="stop3491"
         offset=".71276"
         stop-color="#61cee8" />
      <stop
         id="stop3493"
         offset="1"
         stop-color="#008aaa" />
    </radialGradient>
    <radialGradient
       gradientUnits="userSpaceOnUse"
       gradientTransform="matrix(5.7262,1.5053e-6,-1.8231e-6,6.9353,5744.5,-405.52)"
       r="77.46"
       cy="492.03"
       cx="160.79"
       id="n">
      <stop
         id="stop3496"
         offset="0"
         stop-color="#00d455" />
      <stop
         id="stop3498"
         offset="1"
         stop-opacity="0"
         stop-color="#00d455" />
    </radialGradient>
    <radialGradient
       gradientUnits="userSpaceOnUse"
       gradientTransform="matrix(6.8058,0,0,6.8058,5571,-112.08)"
       r="77.46"
       cy="344.25"
       cx="160.79"
       id="o">
      <stop
         id="stop3501"
         offset="0"
         stop-color="#0055d4" />
      <stop
         id="stop3503"
         offset="1"
         stop-opacity="0"
         stop-color="#0055d4" />
    </radialGradient>
    <linearGradient
       gradientUnits="userSpaceOnUse"
       gradientTransform="matrix(5.2513,0,0,5.2513,5820.9,423.07)"
       y2="411.6"
       y1="328.16"
       x2="159.24"
       x1="159.24"
       id="j">
      <stop
         id="stop3506"
         offset="0"
         stop-color="#fff" />
      <stop
         id="stop3508"
         offset="1"
         stop-opacity="0"
         stop-color="#fff" />
    </linearGradient>
    <marker
       orient="auto"
       overflow="visible"
       id="b">
      <path
         id="path1101"
         d="M2.3 0l-3.5 2v-4z" />
    </marker>
    <marker
       orient="auto"
       overflow="visible"
       id="c">
      <path
         id="path1104"
         d="M-2.3 0l3.5-2v4z" />
    </marker>
    <clipPath
       id="a">
      <path
         id="path1107"
         d="M9 1.5h99v99H9z" />
    </clipPath>
  </defs>
  <sodipodi:namedview
     pagecolor="#ffffff"
     bordercolor="#666666"
     borderopacity="1"
     objecttolerance="10"
     gridtolerance="10"
     guidetolerance="10"
     inkscape:pageopacity="0"
     inkscape:pageshadow="2"
     inkscape:window-width="1366"
     inkscape:window-height="705"
     id="namedview2834"
     showgrid="false"
     inkscape:zoom="0.179375"
     inkscape:cx="597.67845"
     inkscape:cy="-504.64116"
     inkscape:window-x="-8"
     inkscape:window-y="-8"
     inkscape:window-maximized="1"
     inkscape:current-layer="svg2832" />
  <g
     id="g1457"
     transform="matrix(7.3968129,0,0,5.1117329,-5.344603,6.3321586)">
    <g
       id="g1146"
       style="fill:none;stroke:#ff0000;stroke-width:1.20000005">
      <path
         id="path1112"
         clip-path="url(#a)"
         d="m 33.46,-0.27 c 17.9,9.33 8.27,26.5 0.98,42.33 -7.68,16.64 -4.04,37.48 18.56,27.3 19.9,-8.97 33.13,-9.7 42.2,29.1"
         inkscape:connector-curvature="0" />
      <path
         id="path1114"
         d="m 156.9,1.57 49.44,97"
         inkscape:connector-curvature="0" />
      <g
         id="g1144"
         style="stroke:#000000;stroke-width:0.60000002">
        <g
           id="g1124"
           style="stroke-width:0.5;stroke-dasharray:1.5, 1.5">
          <path
             id="path1116"
             d="M 88.87,98.44 C 84.49,79.68 79.74,73.61 75.37,71.62 c -6.64,-3.02 -14.2,0.9 -19.87,3.3 -11,4.62 -23.52,5.13 -28.56,-6.5 -8.5,-19.66 7.56,-33.3 10.45,-50.83 1,-6.1 -2.7,-10.3 -6.8,-12.5 -2.3,-1.2 -5.5,-2.4 -8.5,-3.6"
             inkscape:connector-curvature="0" />
          <path
             id="path1118"
             d="m 45.44,1.54 c 3.15,4.68 5.5,11.68 4.1,17.8 -2.05,8.95 -5.88,17.58 -9.45,25.32 -3.3,7.1 -4,14.3 -2.1,18.14 2.6,5.14 9.5,2.2 12.4,0.9 9.8,-4.42 21.5,-7.66 30.6,-2.95 9.6,6 13.5,14.67 16.9,24.56"
             inkscape:connector-curvature="0" />
          <path
             id="path1120"
             d="m 163.9,1.57 49.44,96.85"
             inkscape:connector-curvature="0" />
          <path
             id="path1122"
             d="m 149.7,1.57 49.44,96.85"
             inkscape:connector-curvature="0" />
        </g>
        <path
           id="path1126"
           d="M 1.3,1.6 H 98 v 97 H 1.3 Z"
           inkscape:connector-curvature="0" />
        <path
           id="path1128"
           d="m 122,1.6 h 96.7 v 97 H 122 Z"
           inkscape:connector-curvature="0" />
        <g
           id="g1142"
           style="marker-end:url(#b)">
          <g
             id="g1138"
             style="stroke-width:0.30000001;marker-start:url(#c)">
            <path
               id="path1130"
               d="m 165.8,30.63 3.35,-1.8"
               inkscape:connector-curvature="0" />
            <path
               id="path1132"
               d="m 171.7,27.43 3.35,-1.8"
               inkscape:connector-curvature="0" />
            <path
               id="path1134"
               d="m 34.13,31.13 3.1,1.5"
               inkscape:connector-curvature="0" />
            <path
               id="path1136"
               d="m 39.85,33.86 3.27,1.6"
               inkscape:connector-curvature="0" />
          </g>
          <path
             id="path1140"
             d="m 86.02,50.14 h 46.17"
             inkscape:connector-curvature="0" />
        </g>
      </g>
    </g>
    <text
       id="text1148"
       font-size="6"
       y="45.860001"
       x="107.87"
       style="font-size:6px;font-family:sans-serif">Ø</text>
    <g
       id="g1306"
       style="fill:#ffffff;stroke:#000000;stroke-width:0.2">
      <circle
         id="circle1150"
         r="1"
         cy="37.200001"
         cx="15.4" />
      <circle
         id="circle1152"
         r="1"
         cy="31.200001"
         cx="13.7" />
      <circle
         id="circle1154"
         r="1"
         cy="37.200001"
         cx="4.6999998" />
      <circle
         id="circle1156"
         r="1"
         cy="50.799999"
         cx="4.8000002" />
      <circle
         id="circle1158"
         r="1"
         cy="46.400002"
         cx="15.1" />
      <circle
         id="circle1160"
         r="1"
         cy="49.200001"
         cx="19.5" />
      <circle
         id="circle1162"
         r="1"
         cy="52.299999"
         cx="19.6" />
      <circle
         id="circle1164"
         r="1"
         cy="55.299999"
         cx="16.6" />
      <circle
         id="circle1166"
         r="1"
         cy="60"
         cx="21.1" />
      <circle
         id="circle1168"
         r="1"
         cy="62.900002"
         cx="10.7" />
      <circle
         id="circle1170"
         r="1"
         cy="70.5"
         cx="18.4" />
      <circle
         id="circle1172"
         r="1"
         cy="78"
         cx="10.8" />
      <circle
         id="circle1174"
         r="1"
         cy="76.199997"
         cx="27.6" />
      <circle
         id="circle1176"
         r="1"
         cy="80.900002"
         cx="35.599998" />
      <circle
         id="circle1178"
         r="1"
         cy="82.300003"
         cx="47.700001" />
      <circle
         id="circle1180"
         r="1"
         cy="91.5"
         cx="34.099998" />
      <circle
         id="circle1182"
         r="1"
         cy="87.300003"
         cx="52.299999" />
      <circle
         id="circle1184"
         r="1"
         cy="87"
         cx="68.800003" />
      <circle
         id="circle1186"
         r="1"
         cy="95.599998"
         cx="83.300003" />
      <circle
         id="circle1188"
         r="1"
         cy="83.199997"
         cx="77.599998" />
      <circle
         id="circle1190"
         r="1"
         cy="77.699997"
         cx="75" />
      <circle
         id="circle1192"
         r="1"
         cy="77.300003"
         cx="71.099998" />
      <circle
         id="circle1194"
         r="1"
         cy="74.699997"
         cx="67.800003" />
      <circle
         id="circle1196"
         r="1"
         cy="70.900002"
         cx="73.199997" />
      <circle
         id="circle1198"
         r="1"
         cy="26.700001"
         cx="15.3" />
      <circle
         id="circle1200"
         r="1"
         cy="28.1"
         cx="25.200001" />
      <circle
         id="circle1202"
         r="1"
         cy="23.700001"
         cx="32.599998" />
      <circle
         id="circle1204"
         r="1"
         cy="19.1"
         cx="32.599998" />
      <circle
         id="circle1206"
         r="1"
         cy="14.6"
         cx="37.5" />
      <circle
         id="circle1208"
         r="1"
         cy="20.700001"
         cx="26.6" />
      <circle
         id="circle1210"
         r="1"
         cy="14.6"
         cx="24.299999" />
      <circle
         id="circle1212"
         r="1"
         cy="10.2"
         cx="28.9" />
      <circle
         id="circle1214"
         r="1"
         cy="19.1"
         cx="18.299999" />
      <circle
         id="circle1216"
         r="1"
         cy="13"
         cx="16.799999" />
      <circle
         id="circle1218"
         r="1"
         cy="10.1"
         cx="16.799999" />
      <circle
         id="circle1220"
         r="1"
         cy="8.5"
         cx="18.299999" />
      <circle
         id="circle1222"
         r="1"
         cy="14.6"
         cx="10.8" />
      <circle
         id="circle1224"
         r="1"
         cy="20.6"
         cx="4.6999998" />
      <circle
         id="circle1226"
         r="1"
         cy="78.300003"
         cx="58.299999" />
      <circle
         id="circle1228"
         r="1"
         cy="36.900002"
         cx="133.2" />
      <circle
         id="circle1230"
         r="1"
         cy="35.299999"
         cx="145.5" />
      <circle
         id="circle1232"
         r="1"
         cy="26.799999"
         cx="140.89999" />
      <circle
         id="circle1234"
         r="1"
         cy="27"
         cx="149.39999" />
      <circle
         id="circle1236"
         r="1"
         cy="22.1"
         cx="136.3" />
      <circle
         id="circle1238"
         r="1"
         cy="13"
         cx="131.8" />
      <circle
         id="circle1240"
         r="1"
         cy="11.7"
         cx="142.3" />
      <circle
         id="circle1242"
         r="1"
         cy="13"
         cx="145.5" />
      <circle
         id="circle1244"
         r="1"
         cy="10.3"
         cx="146.89999" />
      <circle
         id="circle1246"
         r="1"
         cy="8.6000004"
         cx="148.39999" />
      <circle
         id="circle1248"
         r="1"
         cy="7.0999999"
         cx="142.39999" />
      <circle
         id="circle1250"
         r="1"
         cy="14.6"
         cx="151.39999" />
      <circle
         id="circle1252"
         r="1"
         cy="24"
         cx="156.89999" />
      <circle
         id="circle1254"
         r="1"
         cy="20.1"
         cx="159.2" />
      <circle
         id="circle1256"
         r="1"
         cy="30"
         cx="158.39999" />
      <circle
         id="circle1258"
         r="1"
         cy="42.400002"
         cx="162.60001" />
      <circle
         id="circle1260"
         r="1"
         cy="42.400002"
         cx="165.2" />
      <circle
         id="circle1262"
         r="1"
         cy="45.599998"
         cx="166.7" />
      <circle
         id="circle1264"
         r="1"
         cy="45.900002"
         cx="152.89999" />
      <circle
         id="circle1266"
         r="1"
         cy="47.400002"
         cx="145.3" />
      <circle
         id="circle1268"
         r="1"
         cy="43"
         cx="141.10001" />
      <circle
         id="circle1270"
         r="1"
         cy="55"
         cx="137.7" />
      <circle
         id="circle1272"
         r="1"
         cy="64.699997"
         cx="127.8" />
      <circle
         id="circle1274"
         r="1"
         cy="63.099998"
         cx="149" />
      <circle
         id="circle1276"
         r="1"
         cy="61.5"
         cx="159.5" />
      <circle
         id="circle1278"
         r="1"
         cy="56.200001"
         cx="172.89999" />
      <circle
         id="circle1280"
         r="1"
         cy="68.900002"
         cx="180" />
      <circle
         id="circle1282"
         r="1"
         cy="72"
         cx="181.39999" />
      <circle
         id="circle1284"
         r="1"
         cy="69.800003"
         cx="184.5" />
      <circle
         id="circle1286"
         r="1"
         cy="72.199997"
         cx="174" />
      <circle
         id="circle1288"
         r="1"
         cy="76.699997"
         cx="183" />
      <circle
         id="circle1290"
         r="1"
         cy="84.199997"
         cx="184.39999" />
      <circle
         id="circle1292"
         r="1"
         cy="82.599998"
         cx="177" />
      <circle
         id="circle1294"
         r="1"
         cy="91.699997"
         cx="188.89999" />
      <circle
         id="circle1296"
         r="1"
         cy="87.199997"
         cx="159.5" />
      <circle
         id="circle1298"
         r="1"
         cy="78.199997"
         cx="165.5" />
      <circle
         id="circle1300"
         r="1"
         cy="79.5"
         cx="155.2" />
      <circle
         id="circle1302"
         r="1"
         cy="76.699997"
         cx="138.3" />
      <circle
         id="circle1304"
         r="1"
         cy="50"
         cx="165.2" />
    </g>
    <g
       id="g1332"
       style="stroke:#000000;stroke-width:0.2">
      <circle
         id="circle1308"
         r="1"
         cy="29.700001"
         cx="66.900002" />
      <circle
         id="circle1310"
         r="1"
         cy="37.299999"
         cx="56.400002" />
      <circle
         id="circle1312"
         r="1"
         cy="64.099998"
         cx="38.900002" />
      <circle
         id="circle1314"
         r="1"
         cy="32.599998"
         cx="82" />
      <circle
         id="circle1316"
         r="1"
         cy="6.6999998"
         cx="53.900002" />
      <circle
         id="circle1318"
         r="1"
         cy="70.599998"
         cx="94.599998" />
      <circle
         id="circle1320"
         r="1"
         cy="25.200001"
         cx="195" />
      <circle
         id="circle1322"
         r="1"
         cy="16"
         cx="199.5" />
      <circle
         id="circle1324"
         r="1"
         cy="17.6"
         cx="183" />
      <circle
         id="circle1326"
         r="1"
         cy="35.5"
         cx="181.2" />
      <circle
         id="circle1328"
         r="1"
         cy="72.300003"
         cx="206.60001" />
      <circle
         id="circle1330"
         r="1"
         cy="35.799999"
         cx="196.5" />
    </g>
  </g>
  <rect
     style="opacity:1;fill:#000080;fill-opacity:0.64313725;stroke:#f2f2f2;stroke-width:7.22307634;stroke-miterlimit:4;stroke-dasharray:none;stroke-dashoffset:0;stroke-opacity:1"
     id="rect1527"
     width="1728.4352"
     height="629.44379"
     x="-47.492859"
     y="-55.307995"
     rx="29.778294" />
</svg>
